<svg xmlns="http://www.w3.org/2000/svg" version="1.1" xmlns:xlink="http://www.w3.org/1999/xlink" xmlns:svgjs="http://svgjs.dev/svgjs" width="1000" height="879" viewBox="0 0 1000 879"><g transform="matrix(1,0,0,1,0.2457508977274756,0.3565276027539994)"><svg viewBox="0 0 281 247" data-background-color="#ffffff" preserveAspectRatio="xMidYMid meet" height="879" width="1000" xmlns="http://www.w3.org/2000/svg" xmlns:xlink="http://www.w3.org/1999/xlink"><g id="tight-bounds" transform="matrix(1,0,0,1,-0.06905600226141928,-0.09997365579206985)"><svg viewBox="0 0 281.1379671124935 247.2" height="247.2" width="281.1379671124935"><g><svg viewBox="0 0 281.1379671124935 247.2" height="247.2" width="281.1379671124935"><g><svg viewBox="0 0 281.1379671124935 247.2" height="247.2" width="281.1379671124935"><g><svg viewBox="0 0 281.1379671124935 247.2" height="247.2" width="281.1379671124935"><g><svg viewBox="0 0 281.1379671124935 247.2" height="247.2" width="281.1379671124935"><path d="M280.48 53.02C279.158 27.36 275.391 20.227 275.391 20.227 263.826-6.202 249.394-0.506 236.428 3.292 213.536 3.446 190.737 9.091 167.898 12.119 119.961 12.581 71.613 4.986 23.913 23.717 19.433 29.464-4.648 24.846 0.797 56.304 2.224 69.39 7.432 83.913 7.273 95.922 7.987 98.026 8.978 93.202 9.401 96.23 10.881 104.39 13.3 100.541 15.283 105.365 12.52 118.246 14.503 128.971 16.393 140.21 13.062 143.135 8.793 141.749 6.877 151.449 6.678 158.479 5.608 157.145 4.432 156.837 3.573 156.632 1.841 157.402 2.132 159.608 3.123 167.152-1.133 171.514 1.537 178.904-0.3 186.91 2.806 193.838 2.383 202.511 2.33 204.255 2.621 205.744 3.083 206.154 5.132 208.361 2.145 212.672 2.462 217.342 23.477 249.262 46.276 227.195 67.807 241.872 73.397 231.608 69.194 245.516 71.428 243.36 73.173 240.846 74.442 251.263 76.411 245.362 76.715 243.668 76.252 239.665 77.336 240.435 77.904 240.846 78.407 240.743 78.486 238.382 78.605 234.841 77.561 237.048 77.283 235.201 80.283 225.861 79.543 248.081 82.358 247.158 82.226 244.438 81.407 240.538 83.085 241.051 84.751 237.151 84.804 233.918 86.284 242.693 86.337 244.592 86.601 245.926 87.024 246.85 91.65 237.305 96.249 250.237 101.1 245.926 104.074 241.205 106.929 248.492 109.942 246.696 110.999 245.259 112.07 242.693 113.088 247.004 125.551 247.928 138.834 244.079 150.65 247.158 182.225 241.41 215.968 249.518 249.261 241.923 257.112 238.998 265.267 234.841 272.92 231.506 272.92 231.506 279.118 222.371 279.118 181.316S280.44 145.393 280.638 112.703C280.837 80.013 281.762 78.679 280.44 53.02Z" opacity="1" fill="#ee3e38" data-fill-palette-color="tertiary"></path><g transform="matrix(1,0,0,1,55.76832,26.230666666666668)"><svg width="169.60132711249352" viewBox="0.38 -32.15 28 32.15" height="194.73866666666666" data-palette-color="#ffffff"><path d="M11.55-13.25L0.38-32.15 6.73-32.15 14.83-17.82 13.73-17.82 22.08-32.15 28.38-32.15 16.88-13.25 16.88 0 11.55 0 11.55-13.25Z" opacity="1" transform="matrix(1,0,0,1,0,0)" fill="#ffffff" class="undefined-text-0" data-fill-palette-color="quaternary" id="text-0"></path></svg></g></svg></g></svg></g></svg></g><g></g></svg></g><defs></defs></svg><rect width="281.1379671124935" height="247.2" fill="none" stroke="none" visibility="hidden"></rect></g></svg></g></svg>