<svg xmlns="http://www.w3.org/2000/svg" version="1.1" xmlns:xlink="http://www.w3.org/1999/xlink" xmlns:svgjs="http://svgjs.dev/svgjs" width="1000" height="1125" viewBox="0 0 1000 1125"><g transform="matrix(1,0,0,1,0.0011008540699322111,0)"><svg viewBox="0 0 320 360" data-background-color="#ffffff" preserveAspectRatio="xMidYMid meet" height="1125" width="1000" xmlns="http://www.w3.org/2000/svg" xmlns:xlink="http://www.w3.org/1999/xlink"><g id="tight-bounds" transform="matrix(1,0,0,1,0.00010353528136874957,0)"><svg viewBox="0 0 320 360" height="360" width="320"><g><svg></svg></g><g><svg viewBox="0 0 320 360" height="360" width="320"><g><path xmlns="http://www.w3.org/2000/svg" d="M307.925 179.999l6.575-11.387c11.322-19.607 4.604-44.679-15.003-56.001l-11.387-6.575v-13.151c0-22.639-18.354-40.994-40.994-40.994h-13.151l-6.575-11.387c-11.322-19.607-36.393-26.325-56.001-15.003l-11.39 6.572-11.387-6.576c-19.607-11.318-44.679-4.6-56.001 15.007l-6.575 11.387h-13.151c-22.639 0-40.994 18.354-40.994 40.994v13.151l-11.387 6.575c-19.607 11.322-26.325 36.393-15.003 56.001l6.572 11.387-6.576 11.387c-11.318 19.607-4.6 44.679 15.007 56l11.387 6.576v13.15c0 22.639 18.354 40.994 40.994 40.994h13.151l6.575 11.387c11.322 19.607 36.393 26.325 56.001 15.003l11.387-6.571 11.387 6.575c19.607 11.322 44.679 4.604 56-15.003l6.576-11.387h13.15c22.639 0 40.994-18.354 40.994-40.994v-13.151l11.387-6.575c19.607-11.322 26.325-36.393 15.003-56.001zM297.702 115.716c8.655 4.996 14.842 13.062 17.428 22.713 2.586 9.65 1.261 19.734-3.735 28.384l-5.538 9.596-17.747-30.74v-35.494zM251.155 271.155l-57.791 33.365h-66.731l-57.791-33.365-33.365-57.791v-66.731l33.365-57.791 57.791-33.365h66.731l57.791 33.365 33.365 57.791v66.731zM284.517 220.539v31.351l-27.151 15.676zM247.566 277.366l-15.676 27.151h-31.351zM187.15 308.106l-27.151 15.676-27.151-15.676zM119.459 304.517h-31.352l-15.676-27.151zM62.632 267.566l-27.151-15.676v-31.351zM31.891 207.15l-15.675-27.151 15.675-27.151zM35.481 139.459v-31.352l27.151-15.676zM72.431 82.632l15.676-27.151h31.352zM132.848 51.891l27.151-15.675 27.151 15.675zM200.539 55.481h31.351l15.676 27.151zM257.366 92.431l27.151 15.676v31.352zM288.106 152.848l15.676 27.151-15.676 27.151zM247.112 55.481c9.992 0 19.384 3.889 26.452 10.956 7.063 7.063 10.956 16.46 10.957 26.452v11.079l-30.741-17.747-17.747-30.74zM173.18 28.606c8.655-4.996 18.735-6.322 28.385-3.735 9.65 2.586 17.716 8.777 22.712 17.428l5.538 9.596h-35.494l-30.741-17.747zM95.716 42.295c4.996-8.655 13.062-14.842 22.713-17.428 9.65-2.586 19.734-1.261 28.384 3.736l9.596 5.537-30.74 17.747h-35.494zM35.481 92.885c0-9.992 3.889-19.384 10.956-26.452 7.063-7.063 16.46-10.956 26.452-10.956h11.079l-17.747 30.74-30.74 17.747zM8.606 166.817c-4.996-8.655-6.322-18.735-3.735-28.385 2.586-9.65 8.777-17.716 17.428-22.712l9.596-5.538v35.495l-17.747 30.74zM22.295 244.281c-8.655-4.996-14.842-13.062-17.428-22.712-2.586-9.65-1.261-19.734 3.736-28.385l5.537-9.596 17.747 30.74v35.495zM72.885 304.517c-9.992 0-19.384-3.889-26.452-10.957-7.063-7.063-10.956-16.46-10.956-26.451v-11.08l30.74 17.747 17.747 30.741zM146.817 331.391c-8.655 4.996-18.735 6.322-28.385 3.735-9.65-2.586-17.716-8.777-22.712-17.428l-5.538-9.596h35.495l30.74 17.747zM224.281 317.702c-4.996 8.655-13.062 14.842-22.712 17.428-9.65 2.586-19.734 1.261-28.385-3.735l-9.596-5.538 30.74-17.747h35.495zM284.517 267.112c0 9.992-3.889 19.384-10.957 26.452-7.063 7.063-16.46 10.956-26.451 10.957h-11.08l17.747-30.741 30.741-17.747zM315.13 221.565c-2.586 9.65-8.777 17.716-17.428 22.712l-9.596 5.538v-35.494l17.747-30.741 5.538 9.596c4.996 8.658 6.326 18.739 3.739 28.389z" fill="#ee3e38" fill-rule="nonzero" stroke="none" stroke-width="1" stroke-linecap="butt" stroke-linejoin="miter" stroke-miterlimit="10" stroke-dasharray="" stroke-dashoffset="0" font-family="none" font-weight="none" font-size="none" text-anchor="none" style="mix-blend-mode: normal" data-fill-palette-color="tertiary"></path></g><g transform="matrix(1,0,0,1,71.17994401244167,90)"><svg viewBox="0 0 177.64011197511667 180" height="180" width="177.64011197511667"><g><svg viewBox="0 0 177.64011197511667 180" height="180" width="177.64011197511667"><g><svg viewBox="0 0 177.64011197511667 180" height="180" width="177.64011197511667"><g><svg viewBox="0 0 177.64011197511667 180" height="180" width="177.64011197511667"><g><svg viewBox="0 0 177.64011197511667 180" height="180" width="177.64011197511667"><path d="M177.224 38.607C176.389 19.923 174.009 14.728 174.009 14.728 166.702-4.516 157.582-0.368 149.39 2.397 134.925 2.509 120.519 6.62 106.088 8.824 75.798 9.161 45.25 3.63 15.11 17.27 12.279 21.455-2.937 18.092 0.504 40.998 1.406 50.527 4.696 61.102 4.596 69.846 5.047 71.378 5.673 67.866 5.94 70.07 6.876 76.012 8.404 73.209 9.657 76.722 7.911 86.101 9.164 93.911 10.358 102.095 8.254 104.225 5.556 103.216 4.345 110.278 4.22 115.398 3.543 114.426 2.8 114.202 2.257 114.052 1.163 114.613 1.347 116.22 1.973 121.713-0.716 124.889 0.971 130.27-0.19 136.099 1.773 141.144 1.506 147.459 1.472 148.73 1.656 149.813 1.948 150.112 3.243 151.719 1.355 154.858 1.556 158.258 14.834 181.501 29.24 165.433 42.844 176.12 46.377 168.647 43.721 178.773 45.133 177.204 46.235 175.373 47.037 182.959 48.281 178.661 48.473 177.428 48.181 174.514 48.866 175.074 49.225 175.373 49.542 175.298 49.592 173.579 49.667 171.001 49.008 172.608 48.832 171.263 50.728 164.462 50.26 180.642 52.039 179.969 51.956 177.989 51.438 175.149 52.498 175.522 53.551 172.682 53.584 170.328 54.519 176.718 54.553 178.101 54.72 179.072 54.987 179.745 57.91 172.795 60.816 182.211 63.881 179.072 65.76 175.635 67.564 180.941 69.468 179.633 70.136 178.587 70.813 176.718 71.456 179.857 79.331 180.53 87.724 177.727 95.19 179.969 115.141 175.784 136.462 181.688 157.499 176.158 162.459 174.028 167.612 171.001 172.447 168.572 172.447 168.572 176.364 161.921 176.364 132.026S177.199 105.869 177.324 82.065C177.45 58.262 178.034 57.29 177.199 38.607Z" opacity="1" fill="#ee3e38" data-fill-palette-color="tertiary"></path><g transform="matrix(1,0,0,1,27.072000000000003,19.1)"><svg width="123.49611197511666" viewBox="0.3800000250339508 -32.150001525878906 28 32.150001525878906" height="141.8" data-palette-color="#ffffff"><path d="M11.55-13.25L0.38-32.15 6.73-32.15 14.83-17.82 13.73-17.82 22.08-32.15 28.38-32.15 16.88-13.25 16.88 0 11.55 0 11.55-13.25Z" opacity="1" transform="matrix(1,0,0,1,0,0)" fill="#ffffff" class="undefined-text-0" data-fill-palette-color="quaternary" id="text-0"></path></svg></g></svg></g></svg></g></svg></g><g></g></svg></g></svg></g></svg></g><defs></defs></svg><rect width="320" height="360" fill="none" stroke="none" visibility="hidden"></rect></g></svg></g></svg>